<svg width="134" height="80" viewBox="0 0 106 64" fill="none" xmlns="http://www.w3.org/2000/svg">
<path fill-rule="evenodd" clip-rule="evenodd" d="M53 0.689453C38.9982 0.689453 30.2517 7.6457 26.75 21.5635C32 14.6072 38.1267 11.998 45.125 13.7357C49.1202 14.728 51.9762 17.6102 55.1315 20.797C60.2817 25.9892 66.2405 32.0005 79.25 32.0005C93.2517 32.0005 101.998 25.0442 105.5 11.1265C100.25 18.0827 94.1285 20.692 87.125 18.9542C83.1297 17.962 80.2737 15.0797 77.1132 11.893C71.9682 6.69545 66.0147 0.689453 53 0.689453ZM26.75 32.0005C12.7482 32.0005 4.00175 38.9567 0.5 52.8745C5.75 45.913 11.8767 43.3089 18.875 45.0467C22.8702 46.0389 25.7262 48.9212 28.8867 52.108C34.0317 57.3002 39.9905 63.3115 53.0052 63.3115C67.007 63.3115 75.7535 56.3552 79.2552 42.4375C74.0052 49.3937 67.8785 52.003 60.8802 50.2652C56.885 49.273 54.029 46.3907 50.8737 43.204C45.7182 38.0117 39.7595 32.0005 26.75 32.0005Z" fill="#243066"/>
</svg>
