<svg width="101" height="101" viewBox="0 0 101 101" fill="none" xmlns="http://www.w3.org/2000/svg">
<path fill-rule="evenodd" clip-rule="evenodd" d="M97.0244 86.3548L71.7744 10.6048C71.335 9.2982 70.4803 8.17123 69.3403 7.39612C68.2002 6.62101 66.838 6.24044 65.4619 6.3123H35.5404C34.217 6.30888 32.9259 6.72137 31.8498 7.49163C30.7737 8.26194 29.9669 9.35097 29.5434 10.6048L3.97791 86.3548C3.64639 87.3314 3.55911 88.3742 3.72401 89.3924C3.88891 90.4112 4.30092 91.3733 4.92379 92.1958C5.54665 93.0177 6.36161 93.6748 7.29712 94.1091C8.2327 94.5434 9.26037 94.7422 10.2904 94.6873H28.786C30.0986 94.6779 31.3753 94.2587 32.4389 93.4892C33.5024 92.7203 34.2998 91.6384 34.7198 90.3948L38.5703 79.1586L57.5078 93.488C58.6083 94.2852 59.9369 94.7056 61.2955 94.6873H90.8381C91.8576 94.7208 92.8701 94.5062 93.7886 94.063C94.7077 93.6193 95.505 92.9602 96.1135 92.1409C96.7214 91.3221 97.1216 90.3677 97.28 89.3602C97.4391 88.3521 97.3514 87.3213 97.0244 86.3548ZM61.5479 90.5211C61.0891 90.5211 60.6437 90.3658 60.2853 90.0792L24.6199 63.6298L24.0516 63.188H42.9891L43.4942 61.8622L49.8067 45.8916L63.9469 87.7436C64.0605 88.0946 64.0813 88.4689 64.0081 88.83C63.9349 89.1917 63.7701 89.5281 63.529 89.8078C63.2879 90.0868 62.9791 90.2989 62.6321 90.4239C62.2851 90.5489 61.9116 90.5823 61.5479 90.5211ZM91.0269 90.5211H67.545C68.0166 89.1721 68.0166 87.7032 67.545 86.3548L41.9793 10.6048H65.4619C65.9075 10.607 66.3412 10.748 66.7036 11.0081C67.0653 11.2683 67.3373 11.6349 67.4819 12.0567L93.0475 87.8067C93.1334 88.1211 93.1472 88.4512 93.0866 88.7719C93.0267 89.0926 92.8941 89.3949 92.6997 89.6569C92.5046 89.9182 92.2534 90.1322 91.9636 90.2818C91.6739 90.4314 91.3532 90.5135 91.0269 90.5211Z" fill="#243066"/>
</svg>
