<svg width="86" height="97" viewBox="0 0 86 97" fill="none" xmlns="http://www.w3.org/2000/svg">
<g clip-path="url(#clip0_77_4)">
<path d="M63.3607 46.2328H66.0419L65.6933 49.5088H63.0214L63.3607 46.2328ZM85.9963 27.8549V68.8951C85.9053 71.4869 84.5876 73.8039 82.2726 75.3433L46.7219 95.8633C44.674 97.0456 41.3224 97.0456 39.2745 95.8633L3.72372 75.3433C1.5661 73.929 0.159359 71.6486 3.05176e-05 68.8951V27.8549C3.05176e-05 25.4905 1.67554 22.5887 3.72372 21.4067L39.2745 0.886715C41.3224 -0.295572 44.674 -0.295572 46.7219 0.886715L82.2726 21.4067C84.423 22.8581 85.9132 25.3672 85.9963 27.8549ZM67.823 62.7122L55.4173 55.5355C47.142 68.7792 28.8659 62.3073 28.6655 48.3751C29.3328 33.2583 47.9276 28.8303 55.4165 41.2139L67.8221 34.0369C51.6547 8.0351 14.1643 20.3916 14.3327 48.3751C15.0513 78.5438 53.5748 87.4407 67.823 62.7122ZM70.7846 43.9517H68.6578L69.0411 40.2495H66.6785L66.2846 43.9517H63.5969L63.9803 40.2495H61.6176L61.2237 43.9517H58.9715V46.2328H60.981L60.6325 49.5088H58.3099V51.7899H60.3898L59.9589 55.8391H62.3659L62.7852 51.7899H65.4506L65.0198 55.8391H67.4268L67.8461 51.7899H70.1231V49.5088H68.0823L68.4215 46.2328H70.7846V43.9517Z" fill="#243066"/>
</g>
<defs>
<clipPath id="clip0_77_4">
<rect width="86" height="96.75" fill="white"/>
</clipPath>
</defs>
</svg>
