<svg width="89" height="89" viewBox="0 0 89 89" fill="none" xmlns="http://www.w3.org/2000/svg">
<g clip-path="url(#clip0_87_4)">
<path d="M14.4254 58.1166L23.1956 1.70916C23.2585 1.29074 23.4519 0.902847 23.7481 0.600738C24.0443 0.298628 24.4284 0.0977155 24.8455 0.0266227C25.2626 -0.0444701 25.6915 0.0178837 26.0711 0.204801C26.4507 0.391717 26.7616 0.693663 26.9596 1.06762L36.3899 18.7601L14.4254 58.1166ZM76.7031 71.8078L68.3594 19.8911C68.3022 19.5242 68.1441 19.1805 67.9028 18.8982C67.6614 18.616 67.3464 18.4064 66.9928 18.293C66.6393 18.1795 66.2611 18.1665 65.9006 18.2555C65.5401 18.3446 65.2115 18.5321 64.9514 18.7972L12.2968 71.8115L41.4295 88.2283C42.3286 88.7334 43.3426 88.9988 44.3739 88.9988C45.4052 88.9988 46.4192 88.7334 47.3183 88.2283L76.7031 71.8078ZM53.0291 26.5031L46.28 13.5907C46.1097 13.2659 45.8538 12.994 45.5401 12.8043C45.2263 12.6145 44.8666 12.5142 44.5 12.5142C44.1333 12.5142 43.7736 12.6145 43.4599 12.8043C43.1461 12.994 42.8903 13.2659 42.72 13.5907L13.0904 66.6903L53.0291 26.5031Z" fill="#243066"/>
</g>
<defs>
<clipPath id="clip0_87_4">
<rect width="89" height="89" fill="white"/>
</clipPath>
</defs>
</svg>
