<svg width="110" height="91" viewBox="0 0 110 91" fill="none" xmlns="http://www.w3.org/2000/svg">
<path d="M47.2216 5.17803L6.25918 39.0651L11.4446 43.3549L52.4071 9.4678L47.2216 5.17803ZM6.25918 51.9345L47.2216 85.8215L52.4071 81.5317L11.4446 47.6447L6.25918 51.9345ZM62.778 85.8215L103.74 51.9345L98.5549 47.6447L57.5925 81.5317L62.778 85.8215ZM103.74 39.0651L62.778 5.17802L57.5925 9.4678L98.5549 43.3549L103.74 39.0651ZM103.74 51.9345C108.036 48.3807 108.036 42.6189 103.74 39.0651L98.5549 43.3549C99.9871 44.5395 99.9871 46.4601 98.5549 47.6447L103.74 51.9345ZM47.2216 85.8215C51.5174 89.3753 58.4822 89.3753 62.778 85.8215L57.5925 81.5317C56.1606 82.7165 53.839 82.7165 52.4071 81.5317L47.2216 85.8215ZM6.25918 39.0651C1.96341 42.6189 1.96342 48.3807 6.25918 51.9345L11.4446 47.6447C10.0127 46.4601 10.0127 44.5395 11.4446 43.3549L6.25918 39.0651ZM52.4071 9.4678C53.839 8.28322 56.1606 8.28322 57.5925 9.4678L62.778 5.17802C58.4822 1.62425 51.5174 1.62426 47.2216 5.17803L52.4071 9.4678ZM37.7404 17.3113L45.0737 23.378L50.2591 19.0883L42.9258 13.0216L37.7404 17.3113ZM54.9998 30.3331C52.9748 30.3331 51.3331 28.975 51.3331 27.2998H43.9998C43.9998 32.3256 48.9246 36.3998 54.9998 36.3998V30.3331ZM58.6664 27.2998C58.6664 28.975 57.0248 30.3331 54.9998 30.3331V36.3998C61.0749 36.3998 65.9998 32.3256 65.9998 27.2998H58.6664ZM54.9998 24.2665C57.0248 24.2665 58.6664 25.6245 58.6664 27.2998H65.9998C65.9998 22.274 61.0749 18.1998 54.9998 18.1998V24.2665ZM54.9998 18.1998C48.9246 18.1998 43.9998 22.274 43.9998 27.2998H51.3331C51.3331 25.6245 52.9748 24.2665 54.9998 24.2665V18.1998ZM59.7404 35.5113L70.7404 44.6113L75.9257 40.3216L64.9258 31.2216L59.7404 35.5113ZM77 48.5331C74.9745 48.5331 73.3331 47.175 73.3331 45.4998H65.9998C65.9998 50.5256 70.9246 54.5998 77 54.5998V48.5331ZM80.6667 45.4998C80.6667 47.175 79.0247 48.5331 77 48.5331V54.5998C83.0749 54.5998 88 50.5256 88 45.4998H80.6667ZM77 42.4665C79.0247 42.4665 80.6667 43.8245 80.6667 45.4998H88C88 40.474 83.0749 36.3998 77 36.3998V42.4665ZM77 36.3998C70.9246 36.3998 65.9998 40.474 65.9998 45.4998H73.3331C73.3331 43.8245 74.9745 42.4665 77 42.4665V36.3998ZM51.3331 33.3665V57.6331H58.6664V33.3665H51.3331ZM54.9998 66.7333C52.9748 66.7333 51.3331 65.375 51.3331 63.7H43.9998C43.9998 68.7256 48.9246 72.8 54.9998 72.8V66.7333ZM58.6664 63.7C58.6664 65.375 57.0248 66.7333 54.9998 66.7333V72.8C61.0749 72.8 65.9998 68.7256 65.9998 63.7H58.6664ZM54.9998 60.6665C57.0248 60.6665 58.6664 62.0244 58.6664 63.7H65.9998C65.9998 58.674 61.0749 54.5998 54.9998 54.5998V60.6665ZM54.9998 54.5998C48.9246 54.5998 43.9998 58.674 43.9998 63.7H51.3331C51.3331 62.0244 52.9748 60.6665 54.9998 60.6665V54.5998Z" fill="#243066"/>
</svg>
