<svg width="68" height="45" viewBox="0 0 68 45" fill="none" xmlns="http://www.w3.org/2000/svg">
<path d="M18.0407 8.65774C8.09251 8.66007 0 16.0483 0 25.1297C0 33.8047 7.38543 40.9344 16.7187 41.5565C15.4567 40.1696 14.3916 38.6284 13.563 36.9689C8.19052 35.2693 4.3224 30.6043 4.3224 25.1297C4.3224 18.2225 10.4785 12.6032 18.0456 12.6032C25.6124 12.6032 31.7685 18.2225 31.7685 25.1297C31.7685 31.2113 35.3984 36.5329 40.7842 39.3864C38.7201 40.4753 36.3698 41.0569 33.9298 41.0569C26.3627 41.0569 20.2066 35.4375 20.2066 28.5306C20.2066 24.9425 21.9234 21.532 24.8087 19.1761C23.7746 18.1977 22.4891 17.4421 21.0481 16.9976C19.9951 17.9774 19.0743 19.0758 18.3159 20.2676C16.725 22.7676 15.8842 25.6248 15.8842 28.5306C15.8842 37.6131 23.9794 45.0023 33.9298 45.0023C38.2193 45.0023 42.2979 43.6366 45.5477 41.135C46.9163 41.439 48.3447 41.6011 49.8142 41.6011C59.7646 41.6011 67.8598 34.212 67.8598 25.1297C67.8598 21.2147 66.3289 17.4205 63.5495 14.4457C61.2573 11.9927 58.232 10.2136 54.8806 9.31791C55.4916 10.8039 55.9182 12.3717 56.1342 13.9978C60.5907 16.0953 63.5372 20.3237 63.5372 25.1297C63.5372 32.0366 57.3811 37.6558 49.8142 37.6558C42.2471 37.6558 36.091 32.0366 36.091 25.1297C36.091 17.5277 30.42 11.1135 22.7371 9.22346C25.2795 5.95631 29.4302 3.94548 33.9298 3.94548C41.4968 3.94548 47.6529 9.56481 47.6529 16.4718C47.6529 21.0484 44.9605 25.1623 40.7351 27.3564C41.12 28.6619 41.8345 29.8453 42.7919 30.8274C44.9997 29.6932 46.9248 28.1413 48.4606 26.2406C50.7601 23.3951 51.9754 20.017 51.9754 16.4718C51.9754 7.38923 43.8802 3.69493e-05 33.9298 3.69493e-05C27.2602 3.69493e-05 21.1707 3.3585 18.0407 8.65774Z" fill="url(#paint0_linear_25_2)"/>
<defs>
<linearGradient id="paint0_linear_25_2" x1="-6.61891e-05" y1="22.5012" x2="67.8597" y2="22.5012" gradientUnits="userSpaceOnUse">
<stop stop-color="#243066"/>
<stop offset="1" stop-color="#E1E6E9"/>
</linearGradient>
</defs>
</svg>
